<svg xmlns="http://www.w3.org/2000/svg" version="1.0" width="20px" height="20px" viewBox="0 0 512 512">
  <path d="M229 17.5A239.1 239.1 0 0 0 20.9 229.9a294 294 0 0 0 2.1 63 240.9 240.9 0 0 0 22.7 68.8l5.6 11.2L34.6 434c-9.2 33.7-16.6 61.3-16.4 61.4.2.2 28.2-7.1 62.3-16.1 49.6-13.1 62.5-16.2 64.5-15.4 1.4.5 7.9 3.4 14.5 6.4a240.7 240.7 0 0 0 67.6 19.3c16.5 2.2 45.4 2.2 61.4 0A237.5 237.5 0 0 0 425 422c19.4-19.3 32.3-37 44.5-61.1 11-21.7 18.8-45.4 23.2-70.4 2.5-14.6 2.5-57.7 0-73-4.3-25.9-11-46.6-22.3-69.5A237.7 237.7 0 0 0 307.2 21a269.3 269.3 0 0 0-78.2-3.5zm62.5 41.4a198.3 198.3 0 0 1 157.4 145.4c8.6 34 7.9 72.6-1.8 105.3a198.9 198.9 0 0 1-102.5 121.3c-28.6 14-55 20.1-87.1 20.1-36.8 0-69.3-8.9-102.6-28.1l-5.6-3.2-36.8 9.7c-20.2 5.3-37 9.5-37.1 9.3-.2-.2 3.9-16 9.2-35.2 5.2-19.2 9.6-35.6 9.6-36.4.1-.9-2.5-5.9-5.7-11.1A197.6 197.6 0 0 1 118 114a200 200 0 0 1 118-57c12.3-1.5 42.9-.4 55.5 1.9z"/>
  <path d="M164.1 146.2a67.3 67.3 0 0 0-20.7 24.5c-8.7 18-8.5 40.8.5 61.8 11 25.9 39.9 62.7 68.4 87.1a196 196 0 0 0 61.2 36.8c25.1 9.8 29.9 10.9 46.5 10.9 13.1 0 15.2-.2 21.2-2.5 10-3.8 17.5-8.5 24.9-15.8 5.8-5.7 7-7.5 8.9-13.5a63.7 63.7 0 0 0 2.6-23.9c-.5-2.2-3.4-4-17.6-11.1-26-13-36.5-17.5-40.9-17.5-3.7 0-4.3.4-8.7 6.2-10.1 13.3-19.4 23.6-21.8 24.2-2.9.7-8.6-1.4-21.7-8a152.4 152.4 0 0 1-53.5-44c-8.1-10.4-15.4-22.2-15.4-25 0-1.1 3.8-7 8.4-13 9-11.7 11.6-16.1 11.6-19.4 0-1.1-2-6.6-4.3-12.3L203 166a75 75 0 0 0-9.6-18.8l-3.2-3.2h-10.8c-9.1 0-11.6.4-15.3 2.2z"/>
</svg>
